
        <svg xmlns="http://www.w3.org/2000/svg" xmlns:xlink="http://www.w3.org/1999/xlink" version="1.1" width="3162.1621621621625" height="972.9729729729731" viewBox="0 0 3162.1621621621625 972.9729729729731">
			
			<g transform="scale(8.108108108108109) translate(10, 10)">
				<defs id="SvgjsDefs1072"><linearGradient id="SvgjsLinearGradient1077"><stop id="SvgjsStop1078" stop-color="#fbb040" offset="0"/><stop id="SvgjsStop1079" stop-color="#f9ed32" offset="1"/></linearGradient><linearGradient id="SvgjsLinearGradient1080"><stop id="SvgjsStop1081" stop-color="#fbb040" offset="0"/><stop id="SvgjsStop1082" stop-color="#f9ed32" offset="1"/></linearGradient></defs><g id="SvgjsG1073" featureKey="5TMTKC-0" transform="matrix(1.2820512820512822,0,0,1.2820512820512822,312.1794871794872,-459.61538461538464)" fill="#FACF39"><path xmlns="http://www.w3.org/2000/svg" d="M-167.5,390.5c-1.1,0-2-0.9-2-2c0-1.1,0.9-2,2-2c1.1,0,2,0.9,2,2C-165.5,389.6-166.4,390.5-167.5,390.5z   M-177.5,428.5c-2.2,0-4-1.8-4-4s1.8-4,4-4c2.2,0,4,1.8,4,4S-175.3,428.5-177.5,428.5z M-177.5,410.5c-2.2,0-4-1.8-4-4s1.8-4,4-4  c2.2,0,4,1.8,4,4S-175.3,410.5-177.5,410.5z M-177.5,392.5c-2.2,0-4-1.8-4-4c0-2.2,1.8-4,4-4c2.2,0,4,1.8,4,4  C-173.5,390.7-175.3,392.5-177.5,392.5z M-177.5,374.5c-2.2,0-4-1.8-4-4c0-2.2,1.8-4,4-4c2.2,0,4,1.8,4,4  C-173.5,372.7-175.3,374.5-177.5,374.5z M-194.5,414.5c-3.9,0-7-3.1-7-7c0-3.9,3.1-7,7-7c3.9,0,7,3.1,7,7  C-187.5,411.4-190.6,414.5-194.5,414.5z M-194.5,394.5c-3.9,0-7-3.1-7-7c0-3.9,3.1-7,7-7c3.9,0,7,3.1,7,7  C-187.5,391.4-190.6,394.5-194.5,394.5z M-195.5,374.5c-2.2,0-4-1.8-4-4c0-2.2,1.8-4,4-4c2.2,0,4,1.8,4,4  C-191.5,372.7-193.3,374.5-195.5,374.5z M-195.5,362.5c-1.1,0-2-0.9-2-2c0-1.1,0.9-2,2-2c1.1,0,2,0.9,2,2  C-193.5,361.6-194.4,362.5-195.5,362.5z M-214.5,414.5c-3.9,0-7-3.1-7-7c0-3.9,3.1-7,7-7s7,3.1,7,7  C-207.5,411.4-210.6,414.5-214.5,414.5z M-214.5,394.5c-3.9,0-7-3.1-7-7c0-3.9,3.1-7,7-7s7,3.1,7,7  C-207.5,391.4-210.6,394.5-214.5,394.5z M-213.5,374.5c-2.2,0-4-1.8-4-4c0-2.2,1.8-4,4-4c2.2,0,4,1.8,4,4  C-209.5,372.7-211.3,374.5-213.5,374.5z M-213.5,362.5c-1.1,0-2-0.9-2-2c0-1.1,0.9-2,2-2c1.1,0,2,0.9,2,2  C-211.5,361.6-212.4,362.5-213.5,362.5z M-231.5,374.5c-2.2,0-4-1.8-4-4c0-2.2,1.8-4,4-4c2.2,0,4,1.8,4,4  C-227.5,372.7-229.3,374.5-231.5,374.5z M-231.5,384.5c2.2,0,4,1.8,4,4c0,2.2-1.8,4-4,4c-2.2,0-4-1.8-4-4  C-235.5,386.3-233.7,384.5-231.5,384.5z M-241.5,408.5c-1.1,0-2-0.9-2-2c0-1.1,0.9-2,2-2c1.1,0,2,0.9,2,2  C-239.5,407.6-240.4,408.5-241.5,408.5z M-241.5,390.5c-1.1,0-2-0.9-2-2c0-1.1,0.9-2,2-2c1.1,0,2,0.9,2,2  C-239.5,389.6-240.4,390.5-241.5,390.5z M-231.5,402.5c2.2,0,4,1.8,4,4s-1.8,4-4,4c-2.2,0-4-1.8-4-4S-233.7,402.5-231.5,402.5z   M-231.5,420.5c2.2,0,4,1.8,4,4s-1.8,4-4,4c-2.2,0-4-1.8-4-4S-233.7,420.5-231.5,420.5z M-213.5,420.5c2.2,0,4,1.8,4,4  c0,2.2-1.8,4-4,4c-2.2,0-4-1.8-4-4C-217.5,422.3-215.7,420.5-213.5,420.5z M-213.5,432.5c1.1,0,2,0.9,2,2c0,1.1-0.9,2-2,2  c-1.1,0-2-0.9-2-2C-215.5,433.4-214.6,432.5-213.5,432.5z M-195.5,420.5c2.2,0,4,1.8,4,4c0,2.2-1.8,4-4,4c-2.2,0-4-1.8-4-4  C-199.5,422.3-197.7,420.5-195.5,420.5z M-195.5,432.5c1.1,0,2,0.9,2,2c0,1.1-0.9,2-2,2c-1.1,0-2-0.9-2-2  C-197.5,433.4-196.6,432.5-195.5,432.5z M-167.5,404.5c1.1,0,2,0.9,2,2c0,1.1-0.9,2-2,2c-1.1,0-2-0.9-2-2  C-169.5,405.4-168.6,404.5-167.5,404.5z" style="fill-rule: evenodd; clip-rule: evenodd;"/></g><g id="SvgjsG1074" featureKey="7UBp9i-0" transform="matrix(3.6242391343058875,0,0,3.6242391343058875,120.50739385900064,3.269352912165953)" fill="#FACF39"><path d="M8.5 5.720000000000001 l5.34 14.28 l-3.26 0 l-1.08 -3.18 l-5.34 0 l-1.12 3.18 l-3.18 0 l5.42 -14.28 l3.22 0 z M6.84 9.24 l-1.86 5.24 l3.7 0 l-1.8 -5.24 l-0.04 0 z M20.740000000000002 9.38 c1.5067 0 2.5134 0.57332 3.02 1.72 c0.78666 -1.1467 1.8333 -1.72 3.14 -1.72 c1.2933 0 2.2434 0.32666 2.85 0.98 s0.91 1.5533 0.91 2.7 l0 6.94 l-2.84 0 l0 -5.98 c0 -0.90666 -0.13666 -1.5333 -0.41 -1.88 s-0.71668 -0.52 -1.33 -0.52 c-1.2667 0 -1.9 0.86666 -1.9 2.6 l0 5.78 l-2.84 0 l0 -6.1 c0 -0.88 -0.14 -1.48 -0.42 -1.8 s-0.71334 -0.48 -1.3 -0.48 c-0.54666 0 -1.0033 0.21666 -1.37 0.65 s-0.55 1.0033 -0.55 1.71 l0 6.02 l-2.84 0 l0 -10.34 l2.68 0 l0 1.4 l0.04 0 c0.78666 -1.12 1.84 -1.68 3.16 -1.68 z M37.68 9.38 c0.97334 0 1.84 0.22664 2.6 0.67998 s1.3567 1.11 1.79 1.97 s0.65 1.85 0.65 2.97 c0 0.10666 -0.0066602 0.28 -0.02 0.52 l-7.46 0 c0.02666 0.82666 0.24332 1.47 0.64998 1.93 s1.03 0.69 1.87 0.69 c0.52 0 0.99666 -0.13 1.43 -0.39 s0.71 -0.57666 0.83 -0.95 l2.5 0 c-0.73334 2.32 -2.3466 3.48 -4.84 3.48 c-0.94666 -0.01334 -1.8233 -0.22 -2.63 -0.62 s-1.45 -1.0233 -1.93 -1.87 s-0.72 -1.83 -0.72 -2.95 c0 -1.0533 0.24334 -2.0134 0.73 -2.88 s1.1333 -1.5133 1.94 -1.94 s1.6767 -0.64 2.61 -0.64 z M39.86 13.719999999999999 c-0.13334 -0.77334 -0.38 -1.3333 -0.74 -1.68 s-0.87334 -0.52 -1.54 -0.52 c-0.69334 0 -1.24 0.19666 -1.64 0.59 s-0.63334 0.93 -0.7 1.61 l4.62 0 z M47.98 6.5600000000000005 l0.000019531 3.1 l2.08 0 l0 1.9 l-2.08 0 l0 5.12 c0 0.48 0.08 0.8 0.24 0.96 s0.48 0.24 0.96 0.24 c0.34666 0 0.64 -0.02666 0.88 -0.08 l0 2.22 c-0.4 0.06666 -0.96 0.1 -1.68 0.1 c-1.0933 0 -1.9067 -0.18666 -2.44 -0.56 s-0.8 -1.02 -0.8 -1.94 l0 -6.06 l-1.72 0 l0 -1.9 l1.72 0 l0 -3.1 l2.84 0 z M57.459999999999994 9.38 c0.24 0 0.44668 0.03334 0.62002 0.1 l0 2.64 c-0.30666 -0.06666 -0.64666 -0.1 -1.02 -0.1 c-1.8667 0 -2.8 1.1067 -2.8 3.32 l0 4.66 l-2.84 0 l0 -10.34 l2.7 0 l0 1.92 l0.04 0 c0.28 -0.66666 0.72334 -1.2 1.33 -1.6 s1.2633 -0.6 1.97 -0.6 z M63.959999999999994 9.38 c3.0134 0.01334 4.52 0.9933 4.52 2.94 l0 5.48 c0 1.0133 0.12 1.7467 0.36 2.2 l-2.88 0 c-0.10666 -0.32 -0.17332 -0.65334 -0.19998 -1 c-0.84 0.85334 -2 1.28 -3.48 1.28 c-1.08 0 -1.9367 -0.27334 -2.57 -0.82 s-0.95 -1.3067 -0.95 -2.28 c0 -0.94666 0.3 -1.68 0.9 -2.2 c0.61334 -0.54666 1.7267 -0.89332 3.34 -1.04 c1.1467 -0.12 1.8733 -0.27 2.18 -0.45 s0.46 -0.45666 0.46 -0.83 c0 -0.46666 -0.14 -0.81332 -0.42 -1.04 s-0.74666 -0.34 -1.4 -0.34 c-0.6 0 -1.0533 0.12334 -1.36 0.37 s-0.48666 0.64332 -0.54 1.19 l-2.84 0 c0.06666 -1.1333 0.53332 -1.9933 1.4 -2.58 s2.0266 -0.88 3.48 -0.88 z M61.599999999999994 17.06 c0 0.88 0.58 1.32 1.74 1.32 c1.52 -0.01334 2.2866 -0.79334 2.3 -2.34 l0 -1.1 c-0.22666 0.22666 -0.8 0.39332 -1.72 0.49998 c-0.8 0.09334 -1.3867 0.25668 -1.76 0.49002 s-0.56 0.61 -0.56 1.13 z"/></g>
			</g>
		</svg>
	